<?xml version="1.0" encoding="utf-8"?>
<!-- Generator: Adobe Illustrator 21.1.0, SVG Export Plug-In . SVG Version: 6.00 Build 0)  -->
<svg version="1.1" id="Layer_1" xmlns="http://www.w3.org/2000/svg" xmlns:xlink="http://www.w3.org/1999/xlink" x="0px" y="0px"
	 viewBox="0 0 100 100" style="enable-background:new 0 0 100 100;" xml:space="preserve">
<style type="text/css">
	.st0{fill:url(#SVGID_1_);stroke:#4C9BCF;stroke-miterlimit:10;}
	.st1{opacity:0.2;}
	.st2{fill:none;stroke:#231F20;stroke-width:0.1;stroke-miterlimit:10;}
	.st3{fill:#231F20;}
	.st4{fill:none;stroke:#231F20;stroke-width:2;stroke-miterlimit:10;}
	.st5{fill:none;stroke:#231F20;stroke-width:2;stroke-linecap:round;stroke-miterlimit:10;}
	.st6{fill:none;stroke:#231F20;stroke-width:2;stroke-linejoin:round;stroke-miterlimit:10;}
	.st7{fill:none;stroke:#231F20;stroke-width:2;stroke-linecap:round;stroke-linejoin:round;stroke-miterlimit:10;}
	.st8{fill:#757575;}
	.st9{fill:none;stroke:#1D1D1B;stroke-width:2;stroke-linecap:round;stroke-miterlimit:10;}
	.st10{fill:#FFFFFF;}
	.st11{fill:none;stroke:#1D1D1B;stroke-width:2;stroke-miterlimit:10;}
	.st12{fill:#1D1D1B;}
	.st13{clip-path:url(#SVGID_3_);fill:url(#SVGID_4_);}
	.st14{clip-path:url(#SVGID_6_);fill:url(#SVGID_7_);}
	.st15{clip-path:url(#SVGID_9_);fill:url(#SVGID_10_);}
	.st16{clip-path:url(#SVGID_12_);fill:url(#SVGID_13_);}
	.st17{clip-path:url(#SVGID_15_);fill:url(#SVGID_16_);}
	.st18{clip-path:url(#SVGID_18_);fill:url(#SVGID_19_);}
	.st19{clip-path:url(#SVGID_21_);fill:url(#SVGID_22_);}
	.st20{clip-path:url(#SVGID_24_);fill:url(#SVGID_25_);}
	.st21{clip-path:url(#SVGID_27_);fill:url(#SVGID_28_);}
	.st22{clip-path:url(#SVGID_30_);fill:url(#SVGID_31_);}
	.st23{clip-path:url(#SVGID_33_);fill:url(#SVGID_34_);}
	.st24{clip-path:url(#SVGID_36_);fill:url(#SVGID_37_);}
	.st25{clip-path:url(#SVGID_39_);fill:url(#SVGID_40_);}
	.st26{clip-path:url(#SVGID_42_);fill:url(#SVGID_43_);}
	.st27{clip-path:url(#SVGID_45_);fill:url(#SVGID_46_);}
	.st28{clip-path:url(#SVGID_48_);fill:url(#SVGID_49_);}
	.st29{clip-path:url(#SVGID_51_);fill:url(#SVGID_52_);}
	.st30{clip-path:url(#SVGID_54_);fill:url(#SVGID_55_);}
	.st31{clip-path:url(#SVGID_57_);fill:url(#SVGID_58_);}
	.st32{clip-path:url(#SVGID_60_);fill:url(#SVGID_61_);}
	.st33{clip-path:url(#SVGID_63_);fill:url(#SVGID_64_);}
	.st34{clip-path:url(#SVGID_66_);fill:url(#SVGID_67_);}
	.st35{clip-path:url(#SVGID_69_);fill:url(#SVGID_70_);}
	.st36{clip-path:url(#SVGID_72_);fill:url(#SVGID_73_);}
	.st37{clip-path:url(#SVGID_75_);fill:url(#SVGID_76_);}
	.st38{clip-path:url(#SVGID_78_);fill:url(#SVGID_79_);}
	.st39{clip-path:url(#SVGID_81_);fill:url(#SVGID_82_);}
	.st40{fill:#FFFFFF;stroke:#231F20;stroke-width:2;stroke-linecap:round;stroke-miterlimit:10;}
	.st41{clip-path:url(#SVGID_84_);fill:url(#SVGID_85_);}
	.st42{clip-path:url(#SVGID_87_);fill:url(#SVGID_88_);}
	.st43{fill:none;stroke:#000000;stroke-width:2;stroke-linecap:round;stroke-miterlimit:10;}
	.st44{fill:#FFFFFF;stroke:#231F20;stroke-width:2;stroke-miterlimit:10;}
	.st45{clip-path:url(#SVGID_90_);fill:url(#SVGID_91_);}
	.st46{clip-path:url(#SVGID_93_);fill:url(#SVGID_94_);}
	.st47{clip-path:url(#SVGID_96_);fill:url(#SVGID_97_);}
	.st48{clip-path:url(#SVGID_99_);fill:url(#SVGID_100_);}
	.st49{clip-path:url(#SVGID_102_);fill:url(#SVGID_103_);}
	.st50{fill:none;}
	.st51{fill:none;stroke:#000000;stroke-width:2;stroke-miterlimit:10;}
	.st52{clip-path:url(#SVGID_105_);fill:url(#SVGID_106_);}
	.st53{clip-path:url(#SVGID_108_);fill:url(#SVGID_109_);}
	.st54{clip-path:url(#SVGID_111_);fill:url(#SVGID_112_);}
	.st55{clip-path:url(#SVGID_114_);fill:url(#SVGID_115_);}
	.st56{clip-path:url(#SVGID_117_);fill:url(#SVGID_118_);}
	.st57{clip-path:url(#SVGID_120_);fill:url(#SVGID_121_);}
	.st58{clip-path:url(#SVGID_123_);fill:url(#SVGID_124_);}
	.st59{clip-path:url(#SVGID_126_);fill:url(#SVGID_127_);}
	.st60{clip-path:url(#SVGID_129_);fill:url(#SVGID_130_);}
	.st61{clip-path:url(#SVGID_132_);fill:url(#SVGID_133_);}
	.st62{clip-path:url(#SVGID_135_);fill:url(#SVGID_136_);}
	.st63{clip-path:url(#SVGID_138_);fill:url(#SVGID_139_);}
	.st64{clip-path:url(#SVGID_141_);fill:url(#SVGID_142_);}
	.st65{clip-path:url(#SVGID_144_);fill:url(#SVGID_145_);}
	.st66{clip-path:url(#SVGID_147_);fill:url(#SVGID_148_);}
	.st67{clip-path:url(#SVGID_150_);fill:url(#SVGID_151_);}
	.st68{clip-path:url(#SVGID_153_);fill:url(#SVGID_154_);}
	.st69{clip-path:url(#SVGID_156_);fill:url(#SVGID_157_);}
	.st70{fill:none;stroke:#757575;stroke-width:1.5;stroke-linecap:round;stroke-miterlimit:10;}
	.st71{clip-path:url(#SVGID_159_);fill:url(#SVGID_160_);}
	.st72{clip-path:url(#SVGID_162_);fill:url(#SVGID_163_);}
	.st73{clip-path:url(#SVGID_165_);fill:url(#SVGID_166_);}
	.st74{clip-path:url(#SVGID_168_);fill:url(#SVGID_169_);}
	.st75{clip-path:url(#SVGID_171_);fill:url(#SVGID_172_);}
	.st76{clip-path:url(#SVGID_174_);fill:url(#SVGID_175_);}
	.st77{clip-path:url(#SVGID_177_);fill:url(#SVGID_178_);stroke:#4C9BCF;stroke-miterlimit:10;}
	.st78{clip-path:url(#SVGID_180_);fill:url(#SVGID_181_);stroke:#4C9BCF;stroke-miterlimit:10;}
	.st79{fill:#333333;}
	.st80{fill:#0071B9;}
	.st81{fill:none;stroke:#0071B9;stroke-width:2;stroke-linecap:round;stroke-miterlimit:10;}
</style>
<g>
	<path class="st8" d="M50,2c26.5,0,48,21.5,48,48S76.5,98,50,98S2,76.5,2,50S23.5,2,50,2 M50,0C22.4,0,0,22.4,0,50s22.4,50,50,50
		s50-22.4,50-50S77.6,0,50,0L50,0z"/>
</g>
<path class="st8" d="M69.4,21.5C64.3,16.1,57.1,13,49.7,13c-1.7,0-3.3,0.2-5,0.5c-0.6,0.1-1.1,0.4-1.4,0.9L23.7,44.3
	c-0.3,0.5-0.4,1.1-0.3,1.6c1.8,8,6.9,14.4,13.6,17.9V87c0,0.4,0.2,0.8,0.6,0.9c0.4,0.2,0.8,0.1,1.1-0.2L50,77.4l11.3,10.4
	c0.2,0.2,0.4,0.3,0.7,0.3c0.1,0,0.3,0,0.4-0.1c0.4-0.2,0.6-0.5,0.6-0.9V63.8c0-0.1,0-0.2,0-0.2c7.7-4.4,13.1-12.4,13.7-21.7
	C77.1,34.2,74.6,27,69.4,21.5z M44.2,16.8c0.2,1.3,0.3,2.6,0.3,3.9c0,11.4-7.9,21.4-18.9,24.2L44.2,16.8z M44.4,31.2
	c1.6,0.3,3,1.2,4.1,2.5l1.5,1.8l1.5-1.8C52.9,32,54.9,31,57,31c3.1,0,6.5,2.2,6.5,7c0,2.8-2.3,6.4-6.5,10.4c-2.9,2.7-6,4.8-7,5.5
	c-3.4-2.2-10.4-7.7-12.7-12.8C40.4,38.4,42.8,35,44.4,31.2z M61,84.7l-10.3-9.5c-0.4-0.3-1-0.3-1.4,0L39,84.7V64.8
	c3.3,1.4,6.9,2.2,10.7,2.2c0.7,0,1.4,0,2.1-0.1c3.3-0.2,6.4-1.1,9.3-2.4V84.7z M74.6,41.7C73.8,54,63.9,64,51.6,64.9
	C39.6,65.8,29,58.3,25.7,47c3.7-0.9,7.1-2.5,10-4.7c3.4,6.8,13.1,13.1,13.6,13.4c0.2,0.1,0.5,0.2,0.7,0.2c0.2,0,0.5-0.1,0.7-0.2l0,0
	c0.6-0.4,14.8-9.6,14.8-17.8c0-5.9-4.3-9-8.5-9c-2.7,0-5.2,1.2-7,3.4c-1.3-1.6-3-2.6-4.9-3.1c0.9-2.7,1.4-5.5,1.4-8.5
	c0-1.8-0.2-3.7-0.5-5.4c0,0,0,0,0,0c1.2-0.2,2.5-0.3,3.8-0.3c7,0,13.5,2.8,18.2,7.9C72.7,28,75.1,34.7,74.6,41.7z"/>
</svg>
