<?xml version="1.0" encoding="utf-8"?>
<!-- Generator: Adobe Illustrator 21.1.0, SVG Export Plug-In . SVG Version: 6.00 Build 0)  -->
<svg version="1.1" id="Layer_1" xmlns="http://www.w3.org/2000/svg" xmlns:xlink="http://www.w3.org/1999/xlink" x="0px" y="0px"
	 viewBox="0 0 100 100" style="enable-background:new 0 0 100 100;" xml:space="preserve">
<style type="text/css">
	.st0{fill:url(#SVGID_1_);stroke:#4C9BCF;stroke-miterlimit:10;}
	.st1{opacity:0.2;}
	.st2{fill:none;stroke:#231F20;stroke-width:0.1;stroke-miterlimit:10;}
	.st3{fill:#231F20;}
	.st4{fill:none;stroke:#231F20;stroke-width:2;stroke-miterlimit:10;}
	.st5{fill:none;stroke:#231F20;stroke-width:2;stroke-linecap:round;stroke-miterlimit:10;}
	.st6{fill:none;stroke:#231F20;stroke-width:2;stroke-linejoin:round;stroke-miterlimit:10;}
	.st7{fill:none;stroke:#231F20;stroke-width:2;stroke-linecap:round;stroke-linejoin:round;stroke-miterlimit:10;}
	.st8{fill:#757575;}
	.st9{fill:none;stroke:#1D1D1B;stroke-width:2;stroke-linecap:round;stroke-miterlimit:10;}
	.st10{fill:#FFFFFF;}
	.st11{fill:none;stroke:#1D1D1B;stroke-width:2;stroke-miterlimit:10;}
	.st12{fill:#1D1D1B;}
	.st13{clip-path:url(#SVGID_3_);fill:url(#SVGID_4_);}
	.st14{clip-path:url(#SVGID_6_);fill:url(#SVGID_7_);}
	.st15{clip-path:url(#SVGID_9_);fill:url(#SVGID_10_);}
	.st16{clip-path:url(#SVGID_12_);fill:url(#SVGID_13_);}
	.st17{clip-path:url(#SVGID_15_);fill:url(#SVGID_16_);}
	.st18{clip-path:url(#SVGID_18_);fill:url(#SVGID_19_);}
	.st19{clip-path:url(#SVGID_21_);fill:url(#SVGID_22_);}
	.st20{clip-path:url(#SVGID_24_);fill:url(#SVGID_25_);}
	.st21{clip-path:url(#SVGID_27_);fill:url(#SVGID_28_);}
	.st22{clip-path:url(#SVGID_30_);fill:url(#SVGID_31_);}
	.st23{clip-path:url(#SVGID_33_);fill:url(#SVGID_34_);}
	.st24{clip-path:url(#SVGID_36_);fill:url(#SVGID_37_);}
	.st25{clip-path:url(#SVGID_39_);fill:url(#SVGID_40_);}
	.st26{clip-path:url(#SVGID_42_);fill:url(#SVGID_43_);}
	.st27{clip-path:url(#SVGID_45_);fill:url(#SVGID_46_);}
	.st28{clip-path:url(#SVGID_48_);fill:url(#SVGID_49_);}
	.st29{clip-path:url(#SVGID_51_);fill:url(#SVGID_52_);}
	.st30{clip-path:url(#SVGID_54_);fill:url(#SVGID_55_);}
	.st31{clip-path:url(#SVGID_57_);fill:url(#SVGID_58_);}
	.st32{clip-path:url(#SVGID_60_);fill:url(#SVGID_61_);}
	.st33{clip-path:url(#SVGID_63_);fill:url(#SVGID_64_);}
	.st34{clip-path:url(#SVGID_66_);fill:url(#SVGID_67_);}
	.st35{clip-path:url(#SVGID_69_);fill:url(#SVGID_70_);}
	.st36{clip-path:url(#SVGID_72_);fill:url(#SVGID_73_);}
	.st37{clip-path:url(#SVGID_75_);fill:url(#SVGID_76_);}
	.st38{clip-path:url(#SVGID_78_);fill:url(#SVGID_79_);}
	.st39{clip-path:url(#SVGID_81_);fill:url(#SVGID_82_);}
	.st40{fill:#FFFFFF;stroke:#231F20;stroke-width:2;stroke-linecap:round;stroke-miterlimit:10;}
	.st41{clip-path:url(#SVGID_84_);fill:url(#SVGID_85_);}
	.st42{clip-path:url(#SVGID_87_);fill:url(#SVGID_88_);}
	.st43{fill:none;stroke:#000000;stroke-width:2;stroke-linecap:round;stroke-miterlimit:10;}
	.st44{fill:#FFFFFF;stroke:#231F20;stroke-width:2;stroke-miterlimit:10;}
	.st45{clip-path:url(#SVGID_90_);fill:url(#SVGID_91_);}
	.st46{clip-path:url(#SVGID_93_);fill:url(#SVGID_94_);}
	.st47{clip-path:url(#SVGID_96_);fill:url(#SVGID_97_);}
	.st48{clip-path:url(#SVGID_99_);fill:url(#SVGID_100_);}
	.st49{clip-path:url(#SVGID_102_);fill:url(#SVGID_103_);}
	.st50{fill:none;}
	.st51{fill:none;stroke:#000000;stroke-width:2;stroke-miterlimit:10;}
	.st52{clip-path:url(#SVGID_105_);fill:url(#SVGID_106_);}
	.st53{clip-path:url(#SVGID_108_);fill:url(#SVGID_109_);}
	.st54{clip-path:url(#SVGID_111_);fill:url(#SVGID_112_);}
	.st55{clip-path:url(#SVGID_114_);fill:url(#SVGID_115_);}
	.st56{clip-path:url(#SVGID_117_);fill:url(#SVGID_118_);}
	.st57{clip-path:url(#SVGID_120_);fill:url(#SVGID_121_);}
	.st58{clip-path:url(#SVGID_123_);fill:url(#SVGID_124_);}
	.st59{clip-path:url(#SVGID_126_);fill:url(#SVGID_127_);}
	.st60{clip-path:url(#SVGID_129_);fill:url(#SVGID_130_);}
	.st61{clip-path:url(#SVGID_132_);fill:url(#SVGID_133_);}
	.st62{clip-path:url(#SVGID_135_);fill:url(#SVGID_136_);}
	.st63{clip-path:url(#SVGID_138_);fill:url(#SVGID_139_);}
	.st64{clip-path:url(#SVGID_141_);fill:url(#SVGID_142_);}
	.st65{clip-path:url(#SVGID_144_);fill:url(#SVGID_145_);}
	.st66{clip-path:url(#SVGID_147_);fill:url(#SVGID_148_);}
	.st67{clip-path:url(#SVGID_150_);fill:url(#SVGID_151_);}
	.st68{clip-path:url(#SVGID_153_);fill:url(#SVGID_154_);}
	.st69{clip-path:url(#SVGID_156_);fill:url(#SVGID_157_);}
	.st70{fill:none;stroke:#757575;stroke-width:1.5;stroke-linecap:round;stroke-miterlimit:10;}
	.st71{clip-path:url(#SVGID_159_);fill:url(#SVGID_160_);}
	.st72{clip-path:url(#SVGID_162_);fill:url(#SVGID_163_);}
	.st73{clip-path:url(#SVGID_165_);fill:url(#SVGID_166_);}
	.st74{clip-path:url(#SVGID_168_);fill:url(#SVGID_169_);}
	.st75{clip-path:url(#SVGID_171_);fill:url(#SVGID_172_);}
	.st76{clip-path:url(#SVGID_174_);fill:url(#SVGID_175_);}
	.st77{clip-path:url(#SVGID_177_);fill:url(#SVGID_178_);stroke:#4C9BCF;stroke-miterlimit:10;}
	.st78{clip-path:url(#SVGID_180_);fill:url(#SVGID_181_);stroke:#4C9BCF;stroke-miterlimit:10;}
	.st79{fill:#333333;}
	.st80{fill:#0071B9;}
	.st81{fill:none;stroke:#0071B9;stroke-width:2;stroke-linecap:round;stroke-miterlimit:10;}
</style>
<g>
	<path class="st8" d="M50,2c26.5,0,48,21.5,48,48S76.5,98,50,98S2,76.5,2,50S23.5,2,50,2 M50,0C22.4,0,0,22.4,0,50
		c0,27.6,22.4,50,50,50s50-22.4,50-50C100,22.4,77.6,0,50,0L50,0z"/>
</g>
<path class="st8" d="M36.1,29.7c-0.9-1-1.9-1.9-2.6-2.5c-0.5-0.4-1-1.1-1-2c0-1.4,1.1-2.5,2.5-2.5s2.5,1.1,2.5,2.5c0,0.6,0.4,1,1,1
	s1-0.4,1-1c0-2.1-1.5-3.9-3.5-4.3V20c0-0.6-0.4-1-1-1s-1,0.4-1,1v0.8c-2,0.5-3.5,2.2-3.5,4.3c0,1.3,0.6,2.6,1.7,3.5
	c0.6,0.5,1.6,1.5,2.5,2.4c0.7,0.7,1.4,1.4,1.9,1.9c0.4,0.4,0.9,1,0.9,1.9c0,1.4-1.1,2.5-2.5,2.5s-2.5-1.1-2.5-2.5c0-0.6-0.4-1-1-1
	s-1,0.4-1,1c0,2.1,1.5,3.9,3.5,4.3V40c0,0.6,0.4,1,1,1s1-0.4,1-1v-0.8c2-0.5,3.5-2.2,3.5-4.3c0-1.2-0.6-2.5-1.5-3.4
	C37.5,31,36.8,30.4,36.1,29.7z"/>
<path class="st8" d="M54.2,27.2c-0.8,0-1.7,0-2.5,0.1C50.5,19.2,43.5,13,35,13c-9.4,0-17,7.6-17,17c0,6.2,3.4,11.7,8.4,14.6
	c-2,4.1-3.2,8.7-3.2,13.6c0,17.1,13.9,31,31,31s31-13.9,31-31S71.3,27.2,54.2,27.2z M20,30c0-8.3,6.7-15,15-15c8.3,0,15,6.7,15,15
	c0,8.3-6.7,15-15,15C26.7,45,20,38.3,20,30z M50,87c-14-2-24.9-14.1-24.9-28.7c0-2.9,0.4-5.8,1.2-8.4L44,67.7v2.6c0,3.5,3,6.4,6,6.9
	V87z M54.1,87.2c-0.7,0-1.1,0-2.1-0.1V76.3l0.1-1.1l-1.1,0c-2.7,0-5-2.3-5-5v-2.9c0-0.3,0-0.6-0.2-0.9L27.2,47.7
	c0.3-0.7,0.6-1.5,1-2.2c2.1,0.9,4.4,1.4,6.8,1.4c9.4,0,17-7.6,17-17c0-0.2,0-0.4,0-0.6c0.7-0.1,1.4-0.1,2.2-0.1
	c2.8,0,5.9,0.4,7.9,1.1v6.9c0,2.8-2,4.8-4.8,4.8h-5.9c-0.6,0-1.3,0.7-1.3,1.3v5.9c0,1.1-0.6,1.8-1.8,1.8H44c-1.5,0-3,1.5-3,3v2.5
	c0,1.5,1.5,2.5,3,2.5h16.3c1.1,0,1.8,1.1,1.8,2.2v8.5c0,0.8,0.8,1.5,1.6,1.5c5.1,0,9.2,4.1,9.3,9.1C67.8,84.7,61.2,87.2,54.1,87.2z
	 M74.7,78.7c-0.8-5.2-4.7-9.2-10.7-9.4v-8c0-2.2-1.5-4.2-3.8-4.2H44c-0.4,0-1-0.1-1-0.5V54c0-0.4,0.6-1,1-1h4.3
	c2.2,0,3.8-1.5,3.8-3.8V44h5.2c3.9,0,6.8-2.9,6.8-6.8V31c11,4.1,19.1,14.7,19.1,27.2C83.1,66.2,79.9,73.4,74.7,78.7z"/>
</svg>
