<?xml version="1.0" encoding="utf-8"?>
<!-- Generator: Adobe Illustrator 21.1.0, SVG Export Plug-In . SVG Version: 6.00 Build 0)  -->
<svg version="1.1" id="Layer_1" xmlns="http://www.w3.org/2000/svg" xmlns:xlink="http://www.w3.org/1999/xlink" x="0px" y="0px"
	 viewBox="0 0 100 100" style="enable-background:new 0 0 100 100;" xml:space="preserve">
<style type="text/css">
	.st0{fill:url(#SVGID_1_);stroke:#4C9BCF;stroke-miterlimit:10;}
	.st1{opacity:0.2;}
	.st2{fill:none;stroke:#231F20;stroke-width:0.1;stroke-miterlimit:10;}
	.st3{fill:#231F20;}
	.st4{fill:none;stroke:#231F20;stroke-width:2;stroke-miterlimit:10;}
	.st5{fill:none;stroke:#231F20;stroke-width:2;stroke-linecap:round;stroke-miterlimit:10;}
	.st6{fill:none;stroke:#231F20;stroke-width:2;stroke-linejoin:round;stroke-miterlimit:10;}
	.st7{fill:none;stroke:#231F20;stroke-width:2;stroke-linecap:round;stroke-linejoin:round;stroke-miterlimit:10;}
	.st8{fill:#757575;}
	.st9{fill:none;stroke:#1D1D1B;stroke-width:2;stroke-linecap:round;stroke-miterlimit:10;}
	.st10{fill:#FFFFFF;}
	.st11{fill:none;stroke:#1D1D1B;stroke-width:2;stroke-miterlimit:10;}
	.st12{fill:#1D1D1B;}
	.st13{clip-path:url(#SVGID_3_);fill:url(#SVGID_4_);}
	.st14{clip-path:url(#SVGID_6_);fill:url(#SVGID_7_);}
	.st15{clip-path:url(#SVGID_9_);fill:url(#SVGID_10_);}
	.st16{clip-path:url(#SVGID_12_);fill:url(#SVGID_13_);}
	.st17{clip-path:url(#SVGID_15_);fill:url(#SVGID_16_);}
	.st18{clip-path:url(#SVGID_18_);fill:url(#SVGID_19_);}
	.st19{clip-path:url(#SVGID_21_);fill:url(#SVGID_22_);}
	.st20{clip-path:url(#SVGID_24_);fill:url(#SVGID_25_);}
	.st21{clip-path:url(#SVGID_27_);fill:url(#SVGID_28_);}
	.st22{clip-path:url(#SVGID_30_);fill:url(#SVGID_31_);}
	.st23{clip-path:url(#SVGID_33_);fill:url(#SVGID_34_);}
	.st24{clip-path:url(#SVGID_36_);fill:url(#SVGID_37_);}
	.st25{clip-path:url(#SVGID_39_);fill:url(#SVGID_40_);}
	.st26{clip-path:url(#SVGID_42_);fill:url(#SVGID_43_);}
	.st27{clip-path:url(#SVGID_45_);fill:url(#SVGID_46_);}
	.st28{clip-path:url(#SVGID_48_);fill:url(#SVGID_49_);}
	.st29{clip-path:url(#SVGID_51_);fill:url(#SVGID_52_);}
	.st30{clip-path:url(#SVGID_54_);fill:url(#SVGID_55_);}
	.st31{clip-path:url(#SVGID_57_);fill:url(#SVGID_58_);}
	.st32{clip-path:url(#SVGID_60_);fill:url(#SVGID_61_);}
	.st33{clip-path:url(#SVGID_63_);fill:url(#SVGID_64_);}
	.st34{clip-path:url(#SVGID_66_);fill:url(#SVGID_67_);}
	.st35{clip-path:url(#SVGID_69_);fill:url(#SVGID_70_);}
	.st36{clip-path:url(#SVGID_72_);fill:url(#SVGID_73_);}
	.st37{clip-path:url(#SVGID_75_);fill:url(#SVGID_76_);}
	.st38{clip-path:url(#SVGID_78_);fill:url(#SVGID_79_);}
	.st39{clip-path:url(#SVGID_81_);fill:url(#SVGID_82_);}
	.st40{fill:#FFFFFF;stroke:#231F20;stroke-width:2;stroke-linecap:round;stroke-miterlimit:10;}
	.st41{clip-path:url(#SVGID_84_);fill:url(#SVGID_85_);}
	.st42{clip-path:url(#SVGID_87_);fill:url(#SVGID_88_);}
	.st43{fill:none;stroke:#000000;stroke-width:2;stroke-linecap:round;stroke-miterlimit:10;}
	.st44{fill:#FFFFFF;stroke:#231F20;stroke-width:2;stroke-miterlimit:10;}
	.st45{clip-path:url(#SVGID_90_);fill:url(#SVGID_91_);}
	.st46{clip-path:url(#SVGID_93_);fill:url(#SVGID_94_);}
	.st47{clip-path:url(#SVGID_96_);fill:url(#SVGID_97_);}
	.st48{clip-path:url(#SVGID_99_);fill:url(#SVGID_100_);}
	.st49{clip-path:url(#SVGID_102_);fill:url(#SVGID_103_);}
	.st50{fill:none;}
	.st51{fill:none;stroke:#000000;stroke-width:2;stroke-miterlimit:10;}
	.st52{clip-path:url(#SVGID_105_);fill:url(#SVGID_106_);}
	.st53{clip-path:url(#SVGID_108_);fill:url(#SVGID_109_);}
	.st54{clip-path:url(#SVGID_111_);fill:url(#SVGID_112_);}
	.st55{clip-path:url(#SVGID_114_);fill:url(#SVGID_115_);}
	.st56{clip-path:url(#SVGID_117_);fill:url(#SVGID_118_);}
	.st57{clip-path:url(#SVGID_120_);fill:url(#SVGID_121_);}
	.st58{clip-path:url(#SVGID_123_);fill:url(#SVGID_124_);}
	.st59{clip-path:url(#SVGID_126_);fill:url(#SVGID_127_);}
	.st60{clip-path:url(#SVGID_129_);fill:url(#SVGID_130_);}
	.st61{clip-path:url(#SVGID_132_);fill:url(#SVGID_133_);}
	.st62{clip-path:url(#SVGID_135_);fill:url(#SVGID_136_);}
	.st63{clip-path:url(#SVGID_138_);fill:url(#SVGID_139_);}
	.st64{clip-path:url(#SVGID_141_);fill:url(#SVGID_142_);}
	.st65{clip-path:url(#SVGID_144_);fill:url(#SVGID_145_);}
	.st66{clip-path:url(#SVGID_147_);fill:url(#SVGID_148_);}
	.st67{clip-path:url(#SVGID_150_);fill:url(#SVGID_151_);}
	.st68{clip-path:url(#SVGID_153_);fill:url(#SVGID_154_);}
	.st69{clip-path:url(#SVGID_156_);fill:url(#SVGID_157_);}
	.st70{fill:none;stroke:#757575;stroke-width:1.5;stroke-linecap:round;stroke-miterlimit:10;}
	.st71{clip-path:url(#SVGID_159_);fill:url(#SVGID_160_);}
	.st72{clip-path:url(#SVGID_162_);fill:url(#SVGID_163_);}
	.st73{clip-path:url(#SVGID_165_);fill:url(#SVGID_166_);}
	.st74{clip-path:url(#SVGID_168_);fill:url(#SVGID_169_);}
	.st75{clip-path:url(#SVGID_171_);fill:url(#SVGID_172_);}
	.st76{clip-path:url(#SVGID_174_);fill:url(#SVGID_175_);}
	.st77{clip-path:url(#SVGID_177_);fill:url(#SVGID_178_);stroke:#4C9BCF;stroke-miterlimit:10;}
	.st78{clip-path:url(#SVGID_180_);fill:url(#SVGID_181_);stroke:#4C9BCF;stroke-miterlimit:10;}
	.st79{fill:#333333;}
	.st80{fill:#0071B9;}
	.st81{fill:none;stroke:#0071B9;stroke-width:2;stroke-linecap:round;stroke-miterlimit:10;}
</style>
<g>
	<g>
		<path class="st8" d="M50,2c26.5,0,48,21.5,48,48S76.5,98,50,98S2,76.5,2,50S23.5,2,50,2 M50,0C22.4,0,0,22.4,0,50s22.4,50,50,50
			s50-22.4,50-50S77.6,0,50,0L50,0z"/>
	</g>
</g>
<g>
	<path class="st8" d="M83,58c-0.3,0-0.5-0.1-0.7-0.3l-5-5c-0.4-0.4-0.4-1,0-1.4s1-0.4,1.4,0l5,5c0.4,0.4,0.4,1,0,1.4
		C83.5,57.9,83.3,58,83,58z"/>
</g>
<g>
	<path class="st8" d="M68,58.2c-0.6,0-1-0.4-1-1v-1.5c0-0.6,0.4-1,1-1s1,0.4,1,1v1.5C69,57.8,68.6,58.2,68,58.2z"/>
</g>
<g>
	<path class="st8" d="M68,79.2c-0.6,0-1-0.4-1-1v-1.5c0-0.6,0.4-1,1-1s1,0.4,1,1v1.5C69,78.8,68.6,79.2,68,79.2z"/>
</g>
<g>
	<path class="st8" d="M79.2,68h-1.5c-0.6,0-1-0.4-1-1s0.4-1,1-1h1.5c0.6,0,1,0.4,1,1S79.8,68,79.2,68z"/>
</g>
<g>
	<path class="st8" d="M58.2,68h-1.5c-0.6,0-1-0.4-1-1s0.4-1,1-1h1.5c0.6,0,1,0.4,1,1S58.8,68,58.2,68z"/>
</g>
<path class="st8" d="M75.7,58.3c-0.4-0.4-1-0.3-1.4,0.1L68,65.5l-4.5-5.3c-0.4-0.4-1-0.5-1.4-0.1c-0.4,0.4-0.5,1-0.1,1.4l5.2,6.2
	c0,0,0,0,0.1,0c0,0,0,0,0,0.1c0.1,0,0.1,0.1,0.2,0.1c0,0,0.1,0,0.1,0.1C67.7,68,67.9,68,68,68l0,0l0,0c0.1,0,0.3,0,0.4-0.1
	c0,0,0.1,0,0.1-0.1c0.1,0,0.1-0.1,0.2-0.1c0,0,0,0,0-0.1c0,0,0,0,0.1,0l7.1-7.9C76.2,59.3,76.1,58.7,75.7,58.3z"/>
<g>
	<path class="st8" d="M69,52.1V23.9c0-1.6-1.3-2.9-2.9-2.9H57v-1.6c0-0.8-0.6-1.4-1.4-1.4H35.4c-0.8,0-1.4,0.6-1.4,1.4V21h-9.1
		c-1.6,0-2.9,1.3-2.9,2.9v48.2c0,1.6,1.3,2.9,2.9,2.9h30.4c2.7,4.2,7.3,7,12.7,7c8.3,0,15-6.7,15-15C83,59.1,76.8,52.6,69,52.1z
		 M36,22C36,22,36,22,36,22C36,22,36,22,36,22v-2h19v4H36V22z M24.9,73c-0.5,0-0.9-0.4-0.9-0.9V23.9c0-0.5,0.4-0.9,0.9-0.9H34v1.6
		c0,0.8,0.6,1.4,1.4,1.4h20.2c0.8,0,1.4-0.6,1.4-1.4V23h9.1c0.5,0,0.9,0.4,0.9,0.9v28.1c-4.4,0.3-8.3,2.6-10.9,5.9
		c0,0-0.1,0.1-0.1,0.1H42c-0.6,0-1,0.4-1,1s0.4,1,1,1h12.9c-1.2,2-1.9,4.5-1.9,7.1c0,2.1,0.5,4.1,1.3,5.9H24.9z M68,80
		c-4.7,0-8.7-2.5-11-6.2c0-0.3-0.2-0.5-0.4-0.6c-1-1.8-1.6-4-1.6-6.2c0-7.2,5.8-13,13-13s13,5.8,13,13S75.2,80,68,80z"/>
	<path class="st8" d="M36.3,44.3l-4.1,4.1l-1.3-2c-0.3-0.5-0.9-0.6-1.4-0.3s-0.6,0.9-0.3,1.4l1.7,2.6c0.2,0.4,0.6,0.6,1,0.6
		c0,0,0.1,0,0.1,0c0.4,0,0.7-0.1,1-0.4l4.6-4.6c0.4-0.4,0.4-1,0-1.4S36.7,43.9,36.3,44.3z"/>
	<path class="st8" d="M42,36h16c0.6,0,1-0.4,1-1s-0.4-1-1-1H42c-0.6,0-1,0.4-1,1S41.4,36,42,36z"/>
	<path class="st8" d="M42,48h16c0.6,0,1-0.4,1-1s-0.4-1-1-1H42c-0.6,0-1,0.4-1,1S41.4,48,42,48z"/>
	<path class="st8" d="M30.5,39h5c0.8,0,1.5-0.7,1.5-1.5v-5c0-0.8-0.7-1.5-1.5-1.5h-5c-0.8,0-1.5,0.7-1.5,1.5v5
		C29,38.3,29.7,39,30.5,39z M31,33h4v4h-4V33z"/>
	<path class="st8" d="M35.5,55h-5c-0.8,0-1.5,0.7-1.5,1.5v5c0,0.8,0.7,1.5,1.5,1.5h5c0.8,0,1.5-0.7,1.5-1.5v-5
		C37,55.7,36.3,55,35.5,55z M35,61h-4v-4h4V61z"/>
</g>
</svg>
