<?xml version="1.0" encoding="utf-8"?>
<!-- Generator: Adobe Illustrator 21.1.0, SVG Export Plug-In . SVG Version: 6.00 Build 0)  -->
<svg version="1.1" id="Layer_1" xmlns="http://www.w3.org/2000/svg" xmlns:xlink="http://www.w3.org/1999/xlink" x="0px" y="0px"
	 viewBox="0 0 100 100" style="enable-background:new 0 0 100 100;" xml:space="preserve">
<style type="text/css">
	.st0{fill:url(#SVGID_1_);stroke:#4C9BCF;stroke-miterlimit:10;}
	.st1{opacity:0.2;}
	.st2{fill:none;stroke:#231F20;stroke-width:0.1;stroke-miterlimit:10;}
	.st3{fill:#231F20;}
	.st4{fill:none;stroke:#231F20;stroke-width:2;stroke-miterlimit:10;}
	.st5{fill:none;stroke:#231F20;stroke-width:2;stroke-linecap:round;stroke-miterlimit:10;}
	.st6{fill:none;stroke:#231F20;stroke-width:2;stroke-linejoin:round;stroke-miterlimit:10;}
	.st7{fill:none;stroke:#231F20;stroke-width:2;stroke-linecap:round;stroke-linejoin:round;stroke-miterlimit:10;}
	.st8{fill:#757575;}
	.st9{fill:none;stroke:#1D1D1B;stroke-width:2;stroke-linecap:round;stroke-miterlimit:10;}
	.st10{fill:#FFFFFF;}
	.st11{fill:none;stroke:#1D1D1B;stroke-width:2;stroke-miterlimit:10;}
	.st12{fill:#1D1D1B;}
	.st13{clip-path:url(#SVGID_3_);fill:url(#SVGID_4_);}
	.st14{clip-path:url(#SVGID_6_);fill:url(#SVGID_7_);}
	.st15{clip-path:url(#SVGID_9_);fill:url(#SVGID_10_);}
	.st16{clip-path:url(#SVGID_12_);fill:url(#SVGID_13_);}
	.st17{clip-path:url(#SVGID_15_);fill:url(#SVGID_16_);}
	.st18{clip-path:url(#SVGID_18_);fill:url(#SVGID_19_);}
	.st19{clip-path:url(#SVGID_21_);fill:url(#SVGID_22_);}
	.st20{clip-path:url(#SVGID_24_);fill:url(#SVGID_25_);}
	.st21{clip-path:url(#SVGID_27_);fill:url(#SVGID_28_);}
	.st22{clip-path:url(#SVGID_30_);fill:url(#SVGID_31_);}
	.st23{clip-path:url(#SVGID_33_);fill:url(#SVGID_34_);}
	.st24{clip-path:url(#SVGID_36_);fill:url(#SVGID_37_);}
	.st25{clip-path:url(#SVGID_39_);fill:url(#SVGID_40_);}
	.st26{clip-path:url(#SVGID_42_);fill:url(#SVGID_43_);}
	.st27{clip-path:url(#SVGID_45_);fill:url(#SVGID_46_);}
	.st28{clip-path:url(#SVGID_48_);fill:url(#SVGID_49_);}
	.st29{clip-path:url(#SVGID_51_);fill:url(#SVGID_52_);}
	.st30{clip-path:url(#SVGID_54_);fill:url(#SVGID_55_);}
	.st31{clip-path:url(#SVGID_57_);fill:url(#SVGID_58_);}
	.st32{clip-path:url(#SVGID_60_);fill:url(#SVGID_61_);}
	.st33{clip-path:url(#SVGID_63_);fill:url(#SVGID_64_);}
	.st34{clip-path:url(#SVGID_66_);fill:url(#SVGID_67_);}
	.st35{clip-path:url(#SVGID_69_);fill:url(#SVGID_70_);}
	.st36{clip-path:url(#SVGID_72_);fill:url(#SVGID_73_);}
	.st37{clip-path:url(#SVGID_75_);fill:url(#SVGID_76_);}
	.st38{clip-path:url(#SVGID_78_);fill:url(#SVGID_79_);}
	.st39{clip-path:url(#SVGID_81_);fill:url(#SVGID_82_);}
	.st40{fill:#FFFFFF;stroke:#231F20;stroke-width:2;stroke-linecap:round;stroke-miterlimit:10;}
	.st41{clip-path:url(#SVGID_84_);fill:url(#SVGID_85_);}
	.st42{clip-path:url(#SVGID_87_);fill:url(#SVGID_88_);}
	.st43{fill:none;stroke:#000000;stroke-width:2;stroke-linecap:round;stroke-miterlimit:10;}
	.st44{fill:#FFFFFF;stroke:#231F20;stroke-width:2;stroke-miterlimit:10;}
	.st45{clip-path:url(#SVGID_90_);fill:url(#SVGID_91_);}
	.st46{clip-path:url(#SVGID_93_);fill:url(#SVGID_94_);}
	.st47{clip-path:url(#SVGID_96_);fill:url(#SVGID_97_);}
	.st48{clip-path:url(#SVGID_99_);fill:url(#SVGID_100_);}
	.st49{clip-path:url(#SVGID_102_);fill:url(#SVGID_103_);}
	.st50{fill:none;}
	.st51{fill:none;stroke:#000000;stroke-width:2;stroke-miterlimit:10;}
	.st52{clip-path:url(#SVGID_105_);fill:url(#SVGID_106_);}
	.st53{clip-path:url(#SVGID_108_);fill:url(#SVGID_109_);}
	.st54{clip-path:url(#SVGID_111_);fill:url(#SVGID_112_);}
	.st55{clip-path:url(#SVGID_114_);fill:url(#SVGID_115_);}
	.st56{clip-path:url(#SVGID_117_);fill:url(#SVGID_118_);}
	.st57{clip-path:url(#SVGID_120_);fill:url(#SVGID_121_);}
	.st58{clip-path:url(#SVGID_123_);fill:url(#SVGID_124_);}
	.st59{clip-path:url(#SVGID_126_);fill:url(#SVGID_127_);}
	.st60{clip-path:url(#SVGID_129_);fill:url(#SVGID_130_);}
	.st61{clip-path:url(#SVGID_132_);fill:url(#SVGID_133_);}
	.st62{clip-path:url(#SVGID_135_);fill:url(#SVGID_136_);}
	.st63{clip-path:url(#SVGID_138_);fill:url(#SVGID_139_);}
	.st64{clip-path:url(#SVGID_141_);fill:url(#SVGID_142_);}
	.st65{clip-path:url(#SVGID_144_);fill:url(#SVGID_145_);}
	.st66{clip-path:url(#SVGID_147_);fill:url(#SVGID_148_);}
	.st67{clip-path:url(#SVGID_150_);fill:url(#SVGID_151_);}
	.st68{clip-path:url(#SVGID_153_);fill:url(#SVGID_154_);}
	.st69{clip-path:url(#SVGID_156_);fill:url(#SVGID_157_);}
	.st70{fill:none;stroke:#757575;stroke-width:1.5;stroke-linecap:round;stroke-miterlimit:10;}
	.st71{clip-path:url(#SVGID_159_);fill:url(#SVGID_160_);}
	.st72{clip-path:url(#SVGID_162_);fill:url(#SVGID_163_);}
	.st73{clip-path:url(#SVGID_165_);fill:url(#SVGID_166_);}
	.st74{clip-path:url(#SVGID_168_);fill:url(#SVGID_169_);}
	.st75{clip-path:url(#SVGID_171_);fill:url(#SVGID_172_);}
	.st76{clip-path:url(#SVGID_174_);fill:url(#SVGID_175_);}
	.st77{clip-path:url(#SVGID_177_);fill:url(#SVGID_178_);stroke:#4C9BCF;stroke-miterlimit:10;}
	.st78{clip-path:url(#SVGID_180_);fill:url(#SVGID_181_);stroke:#4C9BCF;stroke-miterlimit:10;}
	.st79{fill:#333333;}
	.st80{fill:#0071B9;}
	.st81{fill:none;stroke:#0071B9;stroke-width:2;stroke-linecap:round;stroke-miterlimit:10;}
</style>
<g>
	<path class="st8" d="M50,2c26.5,0,48,21.5,48,48S76.5,98,50,98S2,76.5,2,50S23.5,2,50,2 M50,0C22.4,0,0,22.4,0,50s22.4,50,50,50
		s50-22.4,50-50S77.6,0,50,0L50,0z"/>
</g>
<g>
	<path class="st8" d="M44.4,44c0.8,0,1.5,0.7,1.5,1.5S45.3,47,44.4,47s-1.5-0.7-1.5-1.5S43.6,44,44.4,44 M44.4,42
		c-1.9,0-3.5,1.6-3.5,3.5s1.6,3.5,3.5,3.5c1.9,0,3.5-1.6,3.5-3.5S46.4,42,44.4,42L44.4,42z"/>
</g>
<g>
	<path class="st8" d="M55.5,44c0.8,0,1.5,0.7,1.5,1.5S56.3,47,55.5,47S54,46.3,54,45.5S54.7,44,55.5,44 M55.5,42
		c-1.9,0-3.5,1.6-3.5,3.5s1.6,3.5,3.5,3.5s3.5-1.6,3.5-3.5S57.4,42,55.5,42L55.5,42z"/>
</g>
<g>
	<path class="st8" d="M66.6,44c0.8,0,1.5,0.7,1.5,1.5S67.4,47,66.6,47s-1.5-0.7-1.5-1.5S65.7,44,66.6,44 M66.6,42
		c-1.9,0-3.5,1.6-3.5,3.5s1.6,3.5,3.5,3.5s3.5-1.6,3.5-3.5S68.5,42,66.6,42L66.6,42z"/>
</g>
<g>
	<path class="st8" d="M44.4,55c0.8,0,1.5,0.7,1.5,1.5S45.3,58,44.4,58s-1.5-0.7-1.5-1.5S43.6,55,44.4,55 M44.4,53
		c-1.9,0-3.5,1.6-3.5,3.5s1.6,3.5,3.5,3.5c1.9,0,3.5-1.6,3.5-3.5S46.4,53,44.4,53L44.4,53z"/>
</g>
<g>
	<path class="st8" d="M33.5,55c0.8,0,1.5,0.7,1.5,1.5S34.3,58,33.5,58S32,57.3,32,56.5S32.7,55,33.5,55 M33.5,53
		c-1.9,0-3.5,1.6-3.5,3.5s1.6,3.5,3.5,3.5s3.5-1.6,3.5-3.5S35.4,53,33.5,53L33.5,53z"/>
</g>
<g>
	<path class="st8" d="M55.5,55c0.8,0,1.5,0.7,1.5,1.5S56.3,58,55.5,58S54,57.3,54,56.5S54.7,55,55.5,55 M55.5,53
		c-1.9,0-3.5,1.6-3.5,3.5s1.6,3.5,3.5,3.5s3.5-1.6,3.5-3.5S57.4,53,55.5,53L55.5,53z"/>
</g>
<g>
	<path class="st8" d="M44.4,66c0.8,0,1.5,0.7,1.5,1.5S45.3,69,44.4,69s-1.5-0.7-1.5-1.5S43.6,66,44.4,66 M44.4,64
		c-1.9,0-3.5,1.6-3.5,3.5s1.6,3.5,3.5,3.5c1.9,0,3.5-1.6,3.5-3.5S46.4,64,44.4,64L44.4,64z"/>
</g>
<g>
	<path class="st8" d="M33.5,66c0.8,0,1.5,0.7,1.5,1.5S34.3,69,33.5,69S32,68.3,32,67.5S32.7,66,33.5,66 M33.5,64
		c-1.9,0-3.5,1.6-3.5,3.5s1.6,3.5,3.5,3.5s3.5-1.6,3.5-3.5S35.4,64,33.5,64L33.5,64z"/>
</g>
<g>
	<path class="st8" d="M55.5,66c0.8,0,1.5,0.7,1.5,1.5S56.3,69,55.5,69S54,68.3,54,67.5S54.7,66,55.5,66 M55.5,64
		c-1.9,0-3.5,1.6-3.5,3.5s1.6,3.5,3.5,3.5s3.5-1.6,3.5-3.5S57.4,64,55.5,64L55.5,64z"/>
</g>
<g>
	<path class="st8" d="M66.6,55c0.8,0,1.5,0.7,1.5,1.5S67.4,58,66.6,58s-1.5-0.7-1.5-1.5S65.7,55,66.6,55 M66.6,53
		c-1.9,0-3.5,1.6-3.5,3.5s1.6,3.5,3.5,3.5s3.5-1.6,3.5-3.5S68.5,53,66.6,53L66.6,53z"/>
</g>
<g>
	<path class="st8" d="M32,30c-0.6,0-1,0.4-1,1s0.4,1,1,1c0.6,0,1-0.4,1-1S32.5,30,32,30L32,30z"/>
</g>
<g>
	<path class="st8" d="M67.9,30c-0.6,0-1,0.4-1,1s0.4,1,1,1c0.6,0,1-0.4,1-1S68.5,30,67.9,30L67.9,30z"/>
</g>
<path class="st8" d="M73,25h-4v-3c0-0.6-0.4-1-1-1s-1,0.4-1,1v3H33v-3c0-0.6-0.4-1-1-1s-1,0.4-1,1v3h-4c-1.7,0-3,1.3-3,3v46
	c0,1.7,1.3,3,3,3h33v-0.1c0.9-0.2,1.7-0.6,2.3-1.2l0,0l0.1-0.1c0,0,0.1-0.1,0.1-0.1l11.9-11.9c0,0,0.1-0.1,0.1-0.1l0.1-0.1l0,0
	c0.6-0.7,1-1.4,1.2-2.3H76V28C76,26.3,74.7,25,73,25z M26,28c0-0.6,0.4-1,1-1h46c0.6,0,1,0.4,1,1v8H26V28z M64,71.2V65h6.2L64,71.2z
	 M73.2,62L73,62.2c-0.5,0.5-1.2,0.8-2,0.8h-7c-1.1,0-2,0.9-2,2v7c0,0.8-0.3,1.5-0.8,2L61,74.2c-0.5,0.5-1.2,0.8-2,0.8H27
	c-0.6,0-1-0.4-1-1V38h48v22C74,60.8,73.7,61.5,73.2,62z"/>
</svg>
