<?xml version="1.0" encoding="utf-8"?>
<!-- Generator: Adobe Illustrator 21.1.0, SVG Export Plug-In . SVG Version: 6.00 Build 0)  -->
<svg version="1.1" id="Layer_1" xmlns="http://www.w3.org/2000/svg" xmlns:xlink="http://www.w3.org/1999/xlink" x="0px" y="0px"
	 viewBox="0 0 100.1 100.1" style="enable-background:new 0 0 100.1 100.1;" xml:space="preserve">
<style type="text/css">
	.st0{fill:url(#SVGID_1_);stroke:#4C9BCF;stroke-miterlimit:10;}
	.st1{opacity:0.2;}
	.st2{fill:none;stroke:#231F20;stroke-width:0.1;stroke-miterlimit:10;}
	.st3{fill:#231F20;}
	.st4{fill:none;stroke:#231F20;stroke-width:2;stroke-miterlimit:10;}
	.st5{fill:none;stroke:#231F20;stroke-width:2;stroke-linecap:round;stroke-miterlimit:10;}
	.st6{fill:none;stroke:#231F20;stroke-width:2;stroke-linejoin:round;stroke-miterlimit:10;}
	.st7{fill:none;stroke:#231F20;stroke-width:2;stroke-linecap:round;stroke-linejoin:round;stroke-miterlimit:10;}
	.st8{fill:#757575;}
	.st9{fill:none;stroke:#1D1D1B;stroke-width:2;stroke-linecap:round;stroke-miterlimit:10;}
	.st10{fill:#FFFFFF;}
	.st11{fill:none;stroke:#1D1D1B;stroke-width:2;stroke-miterlimit:10;}
	.st12{fill:#1D1D1B;}
	.st13{clip-path:url(#SVGID_3_);fill:url(#SVGID_4_);}
	.st14{clip-path:url(#SVGID_6_);fill:url(#SVGID_7_);}
	.st15{clip-path:url(#SVGID_9_);fill:url(#SVGID_10_);}
	.st16{clip-path:url(#SVGID_12_);fill:url(#SVGID_13_);}
	.st17{clip-path:url(#SVGID_15_);fill:url(#SVGID_16_);}
	.st18{clip-path:url(#SVGID_18_);fill:url(#SVGID_19_);}
	.st19{clip-path:url(#SVGID_21_);fill:url(#SVGID_22_);}
	.st20{clip-path:url(#SVGID_24_);fill:url(#SVGID_25_);}
	.st21{clip-path:url(#SVGID_27_);fill:url(#SVGID_28_);}
	.st22{clip-path:url(#SVGID_30_);fill:url(#SVGID_31_);}
	.st23{clip-path:url(#SVGID_33_);fill:url(#SVGID_34_);}
	.st24{clip-path:url(#SVGID_36_);fill:url(#SVGID_37_);}
	.st25{clip-path:url(#SVGID_39_);fill:url(#SVGID_40_);}
	.st26{clip-path:url(#SVGID_42_);fill:url(#SVGID_43_);}
	.st27{clip-path:url(#SVGID_45_);fill:url(#SVGID_46_);}
	.st28{clip-path:url(#SVGID_48_);fill:url(#SVGID_49_);}
	.st29{clip-path:url(#SVGID_51_);fill:url(#SVGID_52_);}
	.st30{clip-path:url(#SVGID_54_);fill:url(#SVGID_55_);}
	.st31{clip-path:url(#SVGID_57_);fill:url(#SVGID_58_);}
	.st32{clip-path:url(#SVGID_60_);fill:url(#SVGID_61_);}
	.st33{clip-path:url(#SVGID_63_);fill:url(#SVGID_64_);}
	.st34{clip-path:url(#SVGID_66_);fill:url(#SVGID_67_);}
	.st35{clip-path:url(#SVGID_69_);fill:url(#SVGID_70_);}
	.st36{clip-path:url(#SVGID_72_);fill:url(#SVGID_73_);}
	.st37{clip-path:url(#SVGID_75_);fill:url(#SVGID_76_);}
	.st38{clip-path:url(#SVGID_78_);fill:url(#SVGID_79_);}
	.st39{clip-path:url(#SVGID_81_);fill:url(#SVGID_82_);}
	.st40{fill:#FFFFFF;stroke:#231F20;stroke-width:2;stroke-linecap:round;stroke-miterlimit:10;}
	.st41{clip-path:url(#SVGID_84_);fill:url(#SVGID_85_);}
	.st42{clip-path:url(#SVGID_87_);fill:url(#SVGID_88_);}
	.st43{fill:none;stroke:#000000;stroke-width:2;stroke-linecap:round;stroke-miterlimit:10;}
	.st44{fill:#FFFFFF;stroke:#231F20;stroke-width:2;stroke-miterlimit:10;}
	.st45{clip-path:url(#SVGID_90_);fill:url(#SVGID_91_);}
	.st46{clip-path:url(#SVGID_93_);fill:url(#SVGID_94_);}
	.st47{clip-path:url(#SVGID_96_);fill:url(#SVGID_97_);}
	.st48{clip-path:url(#SVGID_99_);fill:url(#SVGID_100_);}
	.st49{clip-path:url(#SVGID_102_);fill:url(#SVGID_103_);}
	.st50{fill:none;}
	.st51{fill:none;stroke:#000000;stroke-width:2;stroke-miterlimit:10;}
	.st52{clip-path:url(#SVGID_105_);fill:url(#SVGID_106_);}
	.st53{clip-path:url(#SVGID_108_);fill:url(#SVGID_109_);}
	.st54{clip-path:url(#SVGID_111_);fill:url(#SVGID_112_);}
	.st55{clip-path:url(#SVGID_114_);fill:url(#SVGID_115_);}
	.st56{clip-path:url(#SVGID_117_);fill:url(#SVGID_118_);}
	.st57{clip-path:url(#SVGID_120_);fill:url(#SVGID_121_);}
	.st58{clip-path:url(#SVGID_123_);fill:url(#SVGID_124_);}
	.st59{clip-path:url(#SVGID_126_);fill:url(#SVGID_127_);}
	.st60{clip-path:url(#SVGID_129_);fill:url(#SVGID_130_);}
	.st61{clip-path:url(#SVGID_132_);fill:url(#SVGID_133_);}
	.st62{clip-path:url(#SVGID_135_);fill:url(#SVGID_136_);}
	.st63{clip-path:url(#SVGID_138_);fill:url(#SVGID_139_);}
	.st64{clip-path:url(#SVGID_141_);fill:url(#SVGID_142_);}
	.st65{clip-path:url(#SVGID_144_);fill:url(#SVGID_145_);}
	.st66{clip-path:url(#SVGID_147_);fill:url(#SVGID_148_);}
	.st67{clip-path:url(#SVGID_150_);fill:url(#SVGID_151_);}
	.st68{clip-path:url(#SVGID_153_);fill:url(#SVGID_154_);}
	.st69{clip-path:url(#SVGID_156_);fill:url(#SVGID_157_);}
	.st70{fill:none;stroke:#757575;stroke-width:1.5;stroke-linecap:round;stroke-miterlimit:10;}
	.st71{clip-path:url(#SVGID_159_);fill:url(#SVGID_160_);}
	.st72{clip-path:url(#SVGID_162_);fill:url(#SVGID_163_);}
	.st73{clip-path:url(#SVGID_165_);fill:url(#SVGID_166_);}
	.st74{clip-path:url(#SVGID_168_);fill:url(#SVGID_169_);}
	.st75{clip-path:url(#SVGID_171_);fill:url(#SVGID_172_);}
	.st76{clip-path:url(#SVGID_174_);fill:url(#SVGID_175_);}
	.st77{clip-path:url(#SVGID_177_);fill:url(#SVGID_178_);stroke:#4C9BCF;stroke-miterlimit:10;}
	.st78{clip-path:url(#SVGID_180_);fill:url(#SVGID_181_);stroke:#4C9BCF;stroke-miterlimit:10;}
	.st79{fill:#333333;}
	.st80{fill:#0071B9;}
	.st81{fill:none;stroke:#0071B9;stroke-width:2;stroke-linecap:round;stroke-miterlimit:10;}
</style>
<g>
	<rect x="89.8" y="74.4" transform="matrix(0.7071 -0.7071 0.7071 0.7071 -26.8092 86.2876)" class="st8" width="2" height="2.2"/>
</g>
<path class="st8" d="M49.4,49.6l0.4-0.3c0.4-0.4,0.4-1,0.1-1.4c-0.4-0.4-1-0.4-1.4-0.1L48,48.2l-0.4-0.4c-0.4-0.4-1-0.4-1.4,0
	s-0.4,1,0,1.4l0.3,0.3l-0.4,0.3c-0.4,0.4-0.4,1-0.1,1.4c0.2,0.2,0.5,0.3,0.7,0.3c0.2,0,0.5-0.1,0.7-0.3l0.4-0.4l0.4,0.4
	c0.2,0.2,0.5,0.3,0.7,0.3s0.5-0.1,0.7-0.3c0.4-0.4,0.4-1,0-1.4L49.4,49.6z"/>
<path class="st8" d="M61.9,49.6l0.4-0.3c0.4-0.4,0.4-1,0.1-1.4s-1-0.4-1.4-0.1l-0.4,0.4l-0.4-0.4c-0.4-0.4-1-0.4-1.4,0s-0.4,1,0,1.4
	l0.3,0.3l-0.4,0.3c-0.4,0.4-0.4,1-0.1,1.4c0.2,0.2,0.5,0.3,0.7,0.3c0.2,0,0.5-0.1,0.7-0.3l0.4-0.4l0.4,0.4c0.2,0.2,0.5,0.3,0.7,0.3
	s0.5-0.1,0.7-0.3c0.4-0.4,0.4-1,0-1.4L61.9,49.6z"/>
<path class="st8" d="M74.4,49.6l0.4-0.3c0.4-0.4,0.4-1,0.1-1.4s-1-0.4-1.4-0.1L73,48.2l-0.4-0.4c-0.4-0.4-1-0.4-1.4,0s-0.4,1,0,1.4
	l0.3,0.3l-0.4,0.3c-0.4,0.4-0.4,1-0.1,1.4c0.2,0.2,0.5,0.3,0.7,0.3c0.2,0,0.5-0.1,0.7-0.3L73,51l0.4,0.4c0.2,0.2,0.5,0.3,0.7,0.3
	s0.5-0.1,0.7-0.3c0.4-0.4,0.4-1,0-1.4L74.4,49.6z"/>
<path class="st8" d="M87,49.6l0.4-0.3c0.4-0.4,0.4-1,0.1-1.4s-1-0.4-1.4-0.1l-0.4,0.4l-0.4-0.4c-0.4-0.4-1-0.4-1.4,0s-0.4,1,0,1.4
	l0.3,0.3l-0.4,0.3c-0.4,0.4-0.4,1-0.1,1.4c0.2,0.2,0.5,0.3,0.7,0.3c0.2,0,0.5-0.1,0.7-0.3l0.4-0.4l0.4,0.4c0.2,0.2,0.5,0.3,0.7,0.3
	s0.5-0.1,0.7-0.3c0.4-0.4,0.4-1,0-1.4L87,49.6z"/>
<path class="st8" d="M50.1,0c-27.6,0-50,22.4-50,50c0,27.6,22.4,50,50,50s50-22.4,50-50C100.1,22.4,77.7,0,50.1,0z M50.1,98.2
	c-13.2,0-25.2-5.5-33.8-14.2h9.4c0.6,0,1-0.4,1-1s-0.4-1-1-1h-6.5V56h4.1c0.5,0,0.9-0.5,0.9-1.2V23.2c0-0.6-0.4-1.2-0.9-1.2h-4.1v-2
	c0-0.6-0.4-1-1-1s-1,0.4-1,1v2H13c-0.5,0-0.9,0.5-0.9,1.2v31.7c0,0.6,0.4,1.2,0.9,1.2h4.1v26h-2.5c-0.1,0-0.1,0-0.2,0
	C6.8,73.5,2.1,62.3,2.1,50c0-26.5,21.5-48,48-48c26.2,0,47.6,21.1,48,47.2c-0.7-0.1-1.3-0.2-2-0.2c-0.4-5.5-5.1-10-10.7-10H48.1
	c-5.8,0-11,4.9-11,10.7v-1.1c-5,0-10,4.6-10,10.4v5.3v0.5v2.7v1v3.2c0,2.3,1.9,4.5,4.1,4.5h2.6l-3.2,6.1c-0.2,0.4-0.2,0.9,0.1,1.3
	s0.7,0.6,1.2,0.6h2.7c0.8,0,1.6-0.1,2.2-0.7l7.5-7.3h46.4C82.1,89,67.1,98.2,50.1,98.2z M14.1,54V24h8v30H14.1z M33.3,60h28.2
	c2.3,0,4.5,1.9,4.5,4.2v0v0.4V67h-37v-2.3v-0.5C29.1,61.9,31,60,33.3,60z M29.1,59.6v-0.7c0-4.6,4-8.4,8-8.4V58h-3.8
	C31.7,58,30.1,58.6,29.1,59.6z M61.6,58H39.1v-8.3c0-4.7,4.3-8.7,9-8.7h37.3c4.7,0,8.7,4,8.7,8.7V58H72c-2.2,0-4.1,1.1-5.2,2.8
	C65.7,59.1,63.7,58,61.6,58z M36.1,76h5.4l-6,5.9c-0.2,0.2-0.5,0.1-0.8,0.1h-1.8L36.1,76z M91.8,74H31.2c-1.2,0-2.1-1.3-2.1-2.5V69
	H94C93.4,71,92.6,72,91.8,74z M94.8,67H68.1v-2.3v-0.4c0-2.3,1.6-4.2,3.9-4.2h25C96.5,63,95.8,65,94.8,67z M96.1,58v-7
	c0.7,0,1.3,0.1,2,0.3c-0.1,2.2-0.3,4.2-0.7,6.7H96.1z"/>
</svg>
