<?xml version="1.0" encoding="UTF-8"?>
<svg width="27px" height="27px" viewBox="0 0 27 27" version="1.1" xmlns="http://www.w3.org/2000/svg" xmlns:xlink="http://www.w3.org/1999/xlink">
    <!-- Generator: Sketch 50.2 (55047) - http://www.bohemiancoding.com/sketch -->
    <title>navigation icon / support</title>
    <desc>Created with Sketch.</desc>
    <defs></defs>
    <g id="navigation-icon-/-support" stroke="none" stroke-width="1" fill="none" fill-rule="evenodd" stroke-linecap="round" stroke-linejoin="round">
        <g id="Page-1-Copy" transform="translate(1.000000, 1.000000)" stroke="#333333">
            <path d="M25,12.5 C25,19.4033333 19.4033333,25 12.5,25 C5.59666667,25 0,19.4033333 0,12.5 C0,5.59666667 5.59666667,0 12.5,0 C19.4033333,0 25,5.59666667 25,12.5 Z" id="Stroke-1"></path>
            <g id="Group-5" transform="translate(9.027778, 5.166667)">
                <path d="M0.261443932,3.63486943 C0.261443932,1.72780338 1.80752688,0.180952381 3.71536098,0.180952381 C5.62319508,0.180952381 7.16927803,1.72780338 7.16927803,3.63486943 C7.16927803,4.25698925 7.03026114,4.71935484 6.71843318,5.34301075 C5.95652842,6.86451613 3.71536098,8.25391705 3.71536098,11.4513057" id="Stroke-3"></path>
                <path d="M3.68317972,13.8437788 L3.68317972,15.144086" id="Stroke-5"></path>
            </g>
        </g>
    </g>
</svg>